<?xml version="1.0" encoding="UTF-8"?>
<svg id="Layer_2" data-name="Layer 2" xmlns="http://www.w3.org/2000/svg" xmlns:xlink="http://www.w3.org/1999/xlink" viewBox="0 0 481.83 411.71">
  <defs>
    <style>
      .cls-1 {
        fill: url(#Naamloos_verloop_208-5);
      }

      .cls-2 {
        fill: url(#Naamloos_verloop_208-4);
      }

      .cls-3 {
        fill: url(#Naamloos_verloop_208-3);
      }

      .cls-4 {
        fill: url(#Naamloos_verloop_208-2);
      }

      .cls-5 {
        fill: url(#Naamloos_verloop_208);
      }
    </style>
    <linearGradient id="Naamloos_verloop_208" x1="78.68" y1="62.65" x2="440.63" y2="431.27" gradientUnits="userSpaceOnUse">
      <stop offset="0" stop-color="#ff7f00"/>
      <stop offset=".34" stop-color="#c0f"/>
      <stop offset=".67" stop-color="#0068ff"/>
      <stop offset=".99" stop-color="#00c8e1"/>
    </linearGradient>
    <linearGradient id="Naamloos_verloop_208-2" x1="71.68" y1="69.52" x2="433.63" y2="438.14" xlink:href="#Naamloos_verloop_208"/>
    <linearGradient id="Naamloos_verloop_208-3" x1="195.51" y1="-52.07" x2="557.46" y2="316.55" xlink:href="#Naamloos_verloop_208"/>
    <linearGradient id="Naamloos_verloop_208-4" x1="98.81" y1="42.88" x2="460.76" y2="411.5" xlink:href="#Naamloos_verloop_208"/>
    <linearGradient id="Naamloos_verloop_208-5" x1="85.81" y1="55.65" x2="447.76" y2="424.26" xlink:href="#Naamloos_verloop_208"/>
  </defs>
  <g id="Layer_1-2">
    <g>
      <g>
        <path class="cls-5" d="M270.87,86.46c-24.77,6.61-49.53,13.22-74.42,19.86,0-2.45-.08-4.56.01-6.65.55-11.62,1.19-23.24,1.7-34.86.22-4.99.14-4.91,4.95-6.25,18.06-5.04,36.41-7.69,55.17-6.26,34.81,2.66,65.73,14.83,92.07,38.08,14.62,12.9,27.33,27.38,36.98,44.39,17.31,30.53,25.74,63.32,24.15,98.44-1.56,34.47-11.37,66.5-30.33,95.43-24.27,37.02-57.18,63.17-99.76,75.94-46.05,13.82-89.56,7.77-129.17-20.14-25.76-18.15-41.55-43.16-45.86-74.45-4.23-30.63,5.15-57.03,28.74-77.46,24.63-21.33,59.11-26.06,88.68-6.41,24.46,16.26,38.18,48.31,25.82,77.82-7.13,17.02-19.86,27.77-38.27,31.21-21.84,4.08-43.74-9.65-47.81-31.23-2.63-13.98,3.72-27.29,15.89-31.6,6.19-2.19,12.13-1.71,17.01,3.26,3.67,3.74,4.35,8.51,1.99,12.45-2.03,3.39-5.68,4.45-10.92,3.17-4.81,3.56-3.33,12.94,3.93,17.73,7.4,4.88,17.31,3.71,24.52-2.9,11.27-10.34,13.51-28.37,5.24-42.15-11.57-19.27-34.93-26.01-56.26-15.67-16.45,7.97-25.77,21.83-28.22,39.62-4.08,29.62,8.72,52.09,32.86,67.78,26.91,17.5,56.16,18.3,85.8,7.47,24.24-8.86,43.31-24.64,58.3-45.54,12.62-17.6,20.69-37.09,24.06-58.44,3.61-22.89.69-45.01-8.39-66.37-8.7-20.49-22.07-37.39-39.03-51.59-.72-.6-2.52-.58-3.48-.13-14.25,6.66-28.45,13.44-42.65,20.19-24.96,11.86-49.91,23.72-74.87,35.57-.16.08-.39,0-1.01,0,17.3-18.44,34.39-36.67,51.49-54.89,17.06-18.18,34.14-36.34,51.22-54.5-.05-.31-.09-.62-.14-.92Z"/>
        <path class="cls-4" d="M179.02,0c0,5.15.11,9.79-.09,14.41-.05,1.06-.97,2.32-1.85,3.06-14.16,12.06-28.39,24.03-42.57,36.07-3.44,2.92-6.73,6.01-9.89,9.43,17.04-8.21,34.07-16.42,51.15-24.65,0,4.13.21,8.08-.03,12.01-1.15,18.69-2.2,37.38-3.72,56.04-.91,11.22-.99,22.61-4.92,33.43-7.34,20.23-25.2,35.83-50.14,35.74-38.09-.14-76.19-.05-114.28-.06-.73,0-1.46,0-2.54,0,0-5.84-.38-11.54.17-17.15.25-2.51,2.29-4.89,3.68-7.22,12.55-21.09,25.61-41.9,37.48-63.38,4.8-8.69,12.17-11.95,20.37-15.02,1.78-.67,3.55-1.39,5.37-1.93,9.33-2.75,16.81-8.03,23.83-14.87,22.27-21.66,48.35-37.8,76.5-50.73,3.63-1.67,7.28-3.3,11.48-5.19Z"/>
        <path class="cls-3" d="M435.47,272.37c1.15-8.86,2.45-17.71,3.41-26.59,2.86-26.34.69-52.23-6.67-77.75-8.05-27.91-21-53.15-39.5-75.55-25.35-30.68-56.66-52.33-95.36-62.66-22.1-5.9-44.53-7.88-67.26-4.82-6.36.86-12.65,2.31-18.97,3.49-.8.15-1.62.24-3.01.45,6.73-6.46,13.02-12.54,19.39-18.53.69-.65,1.81-1.08,2.78-1.17,38.9-3.71,75.85,3.07,110.63,20.96,28.13,14.47,51.34,34.75,70.08,60.23,20.79,28.27,33.76,59.68,37.75,94.57,2.33,20.35.59,40.57-4.42,60.41-2.31,9.16-5.38,18.13-8.11,27.18-.24-.07-.49-.15-.73-.22Z"/>
        <path class="cls-2" d="M308.09,236.94c-4.07,4.49-20.12,25.14-24.1,30.45.79-10.7,1.45-20.79,2.33-30.85.25-2.85-.39-4.77-2.6-6.83-10.12-9.43-19.99-19.11-29.94-28.72-.51-.49-.94-1.06-2.06-2.32,6.12,1.14,11.34,2.11,16.57,3.09,4.04.76,23.13,3.98,27.01,5.32"/>
      </g>
      <polygon class="cls-1" points="389.98 411.46 310.61 332.08 356.54 286.15 481.83 411.46 389.98 411.46"/>
    </g>
  </g>
</svg>